<?xml version="1.0" encoding="utf-8"?>
<!-- Generator: Adobe Illustrator 15.1.0, SVG Export Plug-In . SVG Version: 6.00 Build 0)  -->
<!DOCTYPE svg PUBLIC "-//W3C//DTD SVG 1.1//EN" "http://www.w3.org/Graphics/SVG/1.1/DTD/svg11.dtd">
<svg version="1.1" id="Layer_1" xmlns="http://www.w3.org/2000/svg" xmlns:xlink="http://www.w3.org/1999/xlink" x="0px" y="0px"
	 width="657.25px" height="68.031px" viewBox="0 0 657.25 68.031" enable-background="new 0 0 657.25 68.031" xml:space="preserve">
<g>
	<path fill-rule="evenodd" clip-rule="evenodd" d="M54.05,14.696c0.178,0.423,0.303,0.866,0.456,1.297
		c0.155,0.435,0.298,0.873,0.446,1.31c0.147,0.436,0.296,0.873,0.443,1.31c0.148,0.436,0.295,0.873,0.442,1.31
		c0.148,0.436,0.296,0.873,0.444,1.31c0.148,0.436,0.296,0.874,0.444,1.31c0.145,0.426,0.291,0.852,0.436,1.278
		c0.148,0.437,0.297,0.873,0.446,1.31c0.147,0.437,0.296,0.873,0.444,1.309c0.148,0.436,0.297,0.873,0.446,1.31
		c0.147,0.436,0.295,0.873,0.443,1.31c0.147,0.436,0.294,0.873,0.442,1.31c0.148,0.436,0.297,0.87,0.453,1.327
		c0.562-0.164,1.091-0.363,1.627-0.541c0.529-0.176,1.056-0.359,1.583-0.538c0.537-0.182,1.074-0.365,1.632-0.553
		c-0.021-0.093-0.026-0.177-0.059-0.25c-0.063-0.139-0.042-0.263,0.011-0.401c0.292-0.761,0.575-1.524,0.864-2.287
		c1.521-4.021,3.041-8.042,4.563-12.063c0.045-0.119,0.096-0.235,0.143-0.35c0.699,0.117,3.271,1.579,4.659,2.646
		c2.776,2.133,4.905,4.787,6.363,7.969c1.402,3.059,2.021,6.278,1.872,9.636c-0.479,10.789-9.034,19.45-19.811,20.027
		c-10.967,0.588-20.075-7.169-21.817-17.323C39.611,26.869,46.119,17.854,54.05,14.696"/>
	<path fill-rule="evenodd" clip-rule="evenodd" d="M47.126,2.739C47.07,2.88,46.964,2.92,46.872,2.962
		c-0.734,0.335-1.417,0.76-2.107,1.175c-2.268,1.361-4.417,2.888-6.41,4.631c-2.667,2.334-4.964,4.982-6.786,8.032
		c-1.618,2.71-2.776,5.606-3.513,8.672c-0.269,1.116-0.48,2.244-0.628,3.381c-0.094,0.724-0.157,1.451-0.221,2.177
		c-0.124,1.402-0.145,2.808-0.104,4.214c0.03,1.019,0.081,2.038,0.193,3.051c0.343,3.071,1.154,6.016,2.401,8.841
		c1.495,3.385,3.497,6.443,5.963,9.198c2.52,2.814,5.417,5.161,8.703,7.026c0.906,0.513,1.835,0.98,2.785,1.405
		c0.075,0.033,0.148,0.073,0.262,0.129c-0.123,0.047-0.203,0.026-0.28,0.014c-1.937-0.317-3.862-0.692-5.769-1.155
		c-3.162-0.768-6.257-1.741-9.279-2.95c-5.715-2.289-10.989-5.337-15.799-9.183c-3.322-2.657-6.337-5.627-9.069-8.885
		c-2.218-2.644-4.221-5.442-6.03-8.379c-0.062-0.1-0.12-0.202-0.185-0.31c0.046-0.089,0.089-0.175,0.135-0.258
		c2.232-3.958,4.83-7.656,7.852-11.052c4.209-4.731,9.066-8.665,14.551-11.826c3.634-2.095,7.448-3.796,11.411-5.167
		c3.063-1.058,6.183-1.915,9.355-2.582c0.776-0.163,1.556-0.311,2.333-0.467C46.797,2.662,46.953,2.643,47.126,2.739"/>
	<path fill-rule="evenodd" clip-rule="evenodd" d="M123.177,33.824c-0.048,0.091-0.086,0.167-0.127,0.242
		c-1.923,3.462-4.136,6.724-6.679,9.761c-3.896,4.654-8.418,8.589-13.558,11.817c-4.013,2.521-8.271,4.533-12.731,6.123
		c-3.023,1.078-6.103,1.962-9.237,2.649c-1.205,0.264-2.415,0.495-3.623,0.741c-0.02,0.003-0.042-0.003-0.076-0.005
		c0.026-0.098,0.117-0.115,0.184-0.151c1.119-0.615,2.217-1.267,3.29-1.959c2.35-1.517,4.559-3.214,6.579-5.153
		c2.755-2.647,5.05-5.638,6.761-9.063c1.22-2.44,2.093-4.999,2.634-7.674c0.229-1.136,0.398-2.28,0.514-3.434
		c0.173-1.722,0.222-3.448,0.166-5.176c-0.032-0.998-0.112-1.992-0.228-2.984c-0.235-2.018-0.646-4-1.249-5.94
		c-1.202-3.868-3.095-7.365-5.654-10.502c-2.416-2.963-5.271-5.429-8.475-7.502c-1.461-0.945-2.978-1.791-4.543-2.549
		c-0.086-0.042-0.174-0.083-0.259-0.129c-0.049-0.027-0.087-0.078-0.062-0.132c0.019-0.043,0.064-0.092,0.106-0.102
		c0.07-0.016,0.148-0.013,0.219,0c0.401,0.072,0.802,0.143,1.202,0.224c2.059,0.418,4.104,0.899,6.128,1.465
		c4.922,1.374,9.665,3.203,14.182,5.601c4.149,2.204,8.003,4.837,11.54,7.931c3.327,2.908,6.288,6.151,8.918,9.699
		c1.419,1.916,2.729,3.903,3.939,5.957C123.081,33.651,123.123,33.726,123.177,33.824"/>
	<path fill-rule="evenodd" clip-rule="evenodd" fill="#ED1C24" d="M54.062,33.912c0-4.456,3.612-8.069,8.069-8.069
		c4.457,0,8.07,3.613,8.07,8.069c0,4.457-3.613,8.07-8.07,8.07C57.674,41.982,54.062,38.369,54.062,33.912"/>
</g>
<g>
	<polygon points="152.432,20.9 137.25,20.9 137.25,8.61 181.638,8.61 181.638,20.9 166.456,20.9 166.456,59.215 152.432,59.215 	"/>
	<polygon points="187.783,8.61 201.808,8.61 201.808,27.551 219.81,27.551 219.81,8.61 233.835,8.61 233.835,59.215 219.81,59.215
		219.81,39.985 201.808,39.985 201.808,59.215 187.783,59.215 	"/>
	<polygon points="242.798,8.61 283.501,8.61 283.501,20.539 256.679,20.539 256.679,28.201 280.969,28.201 280.969,39.263
		256.679,39.263 256.679,47.287 283.86,47.287 283.86,59.215 242.798,59.215 	"/>
	<polygon fill="#ED1C24" points="291.019,8.61 331.72,8.61 331.72,20.539 304.898,20.539 304.898,28.201 329.189,28.201
		329.189,39.263 304.898,39.263 304.898,47.287 332.081,47.287 332.081,59.215 291.019,59.215 	"/>
	<polygon fill="#ED1C24" points="353.841,40.274 334.609,8.61 350.587,8.61 360.998,27.045 371.479,8.61 387.168,8.61
		367.938,40.057 367.938,59.215 353.841,59.215 	"/>
	<polygon fill="#ED1C24" points="391.505,8.61 432.208,8.61 432.208,20.539 405.386,20.539 405.386,28.201 429.677,28.201
		429.677,39.263 405.386,39.263 405.386,47.287 432.567,47.287 432.567,59.215 391.505,59.215 	"/>
	<polygon points="452.087,20.9 436.905,20.9 436.905,8.61 481.294,8.61 481.294,20.9 466.112,20.9 466.112,59.215 452.087,59.215
		"/>
	<path d="M487.438,8.61h23.929c7.736,0,13.086,2.025,16.484,5.494c2.964,2.892,4.481,6.796,4.481,11.784v0.145
		c0,7.735-4.12,12.869-10.409,15.544l12.072,17.639h-16.193l-10.195-15.326h-0.143h-6v15.326h-14.026V8.61z M510.716,32.901
		c4.772,0,7.52-2.313,7.52-6v-0.145c0-3.977-2.892-6-7.59-6h-9.182v12.146H510.716z"/>
	<rect x="539.707" y="8.61" width="14.097" height="50.605"/>
	<path d="M563.058,8.61h25.953c6.361,0,10.845,1.59,13.807,4.554c2.025,2.025,3.256,4.7,3.256,8.17v0.143
		c0,5.856-3.326,9.326-7.809,11.279c6.145,2.023,10.049,5.494,10.049,12.362v0.145c0,8.675-7.085,13.952-19.158,13.952h-26.098V8.61
		z M585.54,28.779c4.266,0,6.651-1.446,6.651-4.409v-0.145c0-2.749-2.169-4.338-6.362-4.338h-9.109v8.892H585.54z M587.565,47.938
		c4.265,0,6.723-1.664,6.723-4.627v-0.145c0-2.747-2.169-4.554-6.867-4.554H576.72v9.326H587.565z"/>
	<polygon points="614.747,8.61 655.449,8.61 655.449,20.539 628.628,20.539 628.628,28.201 652.917,28.201 652.917,39.263
		628.628,39.263 628.628,47.287 655.81,47.287 655.81,59.215 614.747,59.215 	"/>
</g>
</svg>
